<svg xmlns="http://www.w3.org/2000/svg" xmlns:xlink="http://www.w3.org/1999/xlink" width="234.236" height="63.956" viewBox="0 0 234.236 63.956">
    <defs>
        <style>
            .cls-1{fill:#244887}.cls-2{fill:url(#linear-gradient)}.cls-3{fill:url(#linear-gradient-2)}.cls-4{fill:url(#linear-gradient-3)}.cls-5{fill:url(#linear-gradient-4)}.cls-6{fill:url(#linear-gradient-5)}
        </style>
        <linearGradient id="linear-gradient" x1="-.125" x2="1.213" y1=".5" y2=".5" gradientUnits="objectBoundingBox">
            <stop offset="0" stop-color="#25308c"/>
            <stop offset=".494" stop-color="#5588b9"/>
            <stop offset=".629" stop-color="#4a74af"/>
            <stop offset=".903" stop-color="#2f4395"/>
            <stop offset="1" stop-color="#25308c"/>
        </linearGradient>
        <linearGradient id="linear-gradient-2" x1=".5" x2=".5" y1=".09" y2=".797" gradientUnits="objectBoundingBox">
            <stop offset="0" stop-color="#140853" stop-opacity=".698"/>
            <stop offset=".243" stop-color="#1d1f63" stop-opacity=".608"/>
            <stop offset=".614" stop-color="#376091" stop-opacity=".349"/>
            <stop offset="1" stop-color="#5bbad1" stop-opacity="0"/>
        </linearGradient>
        <linearGradient id="linear-gradient-3" x1=".801" x2=".445" y1="1.002" y2=".194" gradientUnits="objectBoundingBox">
            <stop offset="0" stop-color="#140853" stop-opacity=".698"/>
            <stop offset=".25" stop-color="#1e2265" stop-opacity=".596"/>
            <stop offset=".651" stop-color="#3b6a98" stop-opacity=".31"/>
            <stop offset="1" stop-color="#5bbad1" stop-opacity="0"/>
        </linearGradient>
        <linearGradient id="linear-gradient-4" x1=".498" x2=".5" y1=".091" y2=".834" gradientUnits="objectBoundingBox">
            <stop offset="0" stop-color="#140853" stop-opacity=".698"/>
            <stop offset=".243" stop-color="#1a175d" stop-opacity=".639"/>
            <stop offset=".532" stop-color="#2b437d" stop-opacity=".467"/>
            <stop offset=".843" stop-color="#488cb0" stop-opacity=".18"/>
            <stop offset="1" stop-color="#5bbad1" stop-opacity="0"/>
        </linearGradient>
        <linearGradient id="linear-gradient-5" x1=".061" x2=".521" y1=".975" y2=".373" xlink:href="#linear-gradient-4"/>
    </defs>
    <g id="Group_36" data-name="Group 36" transform="translate(-164.851 -42.649)">
        <g id="Group_34" data-name="Group 34">
            <path id="Path_129" d="M243.368 79.031a.538.538 0 0 1-.2.425.685.685 0 0 1-.468.17.6.6 0 0 1-.6-.408l-1.2-2.756h-6.413l-1.225 2.756a.6.6 0 0 1-.6.408.7.7 0 0 1-.477-.178.556.556 0 0 1-.2-.434.608.608 0 0 1 .068-.272l4.866-10.819a.736.736 0 0 1 .306-.358.863.863 0 0 1 .442-.118.848.848 0 0 1 .459.127.786.786 0 0 1 .306.349l4.868 10.819a.643.643 0 0 1 .068.289zM235 75.306h5.393l-2.707-6.106z" class="cls-1" data-name="Path 129"/>
            <path id="Path_130" d="M248.684 79.363a.6.6 0 0 1-.2-.468V68.178a.719.719 0 0 1 .187-.519.763.763 0 0 1 1.021 0 .719.719 0 0 1 .187.519V78.35h5.5a.686.686 0 0 1 .476.154.66.66 0 0 1 0 .884.686.686 0 0 1-.476.153h-6.209a.69.69 0 0 1-.486-.178z" class="cls-1" data-name="Path 130"/>
            <path id="Path_131" d="M261.008 79.431a.719.719 0 0 1-.187-.519V68.229a.649.649 0 0 1 .2-.493.716.716 0 0 1 .518-.187h4.032a4.306 4.306 0 0 1 2.935.918 3.281 3.281 0 0 1 1.046 2.6 3.317 3.317 0 0 1-1.055 2.619 4.255 4.255 0 0 1-2.926.936h-3.351v4.287a.719.719 0 0 1-.187.519.766.766 0 0 1-1.021 0zm4.423-5.963q2.739 0 2.739-2.4 0-2.364-2.739-2.365h-3.215v4.763z" class="cls-1" data-name="Path 131"/>
            <path id="Path_132" d="M284.7 67.659a.741.741 0 0 1 .179.519v10.734a.741.741 0 0 1-.179.519.647.647 0 0 1-.5.195.674.674 0 0 1-.51-.195.719.719 0 0 1-.187-.519v-4.865h-7.179v4.865a.719.719 0 0 1-.187.519.674.674 0 0 1-.51.195.646.646 0 0 1-.5-.195.741.741 0 0 1-.179-.519V68.178a.741.741 0 0 1 .179-.519.646.646 0 0 1 .5-.2.675.675 0 0 1 .51.2.719.719 0 0 1 .187.519v4.678h7.176v-4.678a.719.719 0 0 1 .187-.519.675.675 0 0 1 .51-.2.648.648 0 0 1 .503.2z" class="cls-1" data-name="Path 132"/>
            <path id="Path_133" d="M301.376 79.031a.541.541 0 0 1-.2.425.687.687 0 0 1-.468.17.6.6 0 0 1-.6-.408l-1.208-2.756h-6.4l-1.225 2.756a.6.6 0 0 1-.6.408.7.7 0 0 1-.477-.178.556.556 0 0 1-.2-.434.608.608 0 0 1 .068-.272l4.866-10.819a.727.727 0 0 1 .306-.358.861.861 0 0 1 .442-.118.848.848 0 0 1 .459.127.792.792 0 0 1 .306.349l4.865 10.819a.631.631 0 0 1 .066.289zm-8.37-3.725h5.394l-2.7-6.107z" class="cls-1" data-name="Path 133"/>
            <path id="Path_134" d="M323.3 79.065a.518.518 0 0 1-.2.417.717.717 0 0 1-1.063-.179l-2.28-3.606a2.741 2.741 0 0 0-.918-.961 2.679 2.679 0 0 0-1.293-.264h-2.144v4.44a.719.719 0 0 1-.187.519.652.652 0 0 1-.493.195.674.674 0 0 1-.51-.195.719.719 0 0 1-.187-.519V68.229a.652.652 0 0 1 .195-.493.719.719 0 0 1 .519-.187h4.219a4.523 4.523 0 0 1 2.986.867 3.15 3.15 0 0 1 1.028 2.552 3.2 3.2 0 0 1-.824 2.3 3.762 3.762 0 0 1-2.357 1.055 2.087 2.087 0 0 1 .766.442 4 4 0 0 1 .68.851l1.939 3.062a.714.714 0 0 1 .124.387zm-4.457-5.75a3.187 3.187 0 0 0 2.084-.578 2.16 2.16 0 0 0 .688-1.752 2.1 2.1 0 0 0-.68-1.719 3.249 3.249 0 0 0-2.092-.561h-3.437v4.61z" class="cls-1" data-name="Path 134"/>
            <path id="Path_135" d="M329.044 79.354a.649.649 0 0 1-.2-.493V68.229a.649.649 0 0 1 .2-.493.717.717 0 0 1 .519-.187h6.362a.686.686 0 0 1 .476.153.614.614 0 0 1 0 .85.686.686 0 0 1-.476.153h-5.7v4.168h5.359a.686.686 0 0 1 .476.153.618.618 0 0 1 0 .851.686.686 0 0 1-.476.153h-5.359v4.355h5.7a.714.714 0 0 1 .476.144.625.625 0 0 1 0 .859.686.686 0 0 1-.476.153h-6.362a.717.717 0 0 1-.519-.187z" class="cls-1" data-name="Path 135"/>
            <path id="Path_136" d="M352.052 79.031a.541.541 0 0 1-.2.425.688.688 0 0 1-.468.17.6.6 0 0 1-.6-.408l-1.208-2.756h-6.413l-1.225 2.756a.6.6 0 0 1-.6.408.7.7 0 0 1-.476-.178.557.557 0 0 1-.2-.434.608.608 0 0 1 .068-.272l4.87-10.819a.736.736 0 0 1 .306-.358.867.867 0 0 1 .443-.118.848.848 0 0 1 .459.127.793.793 0 0 1 .306.349l4.865 10.819a.631.631 0 0 1 .073.289zm-8.37-3.725h5.393l-2.706-6.106z" class="cls-1" data-name="Path 136"/>
            <path id="Path_137" d="M357.368 79.363a.6.6 0 0 1-.2-.468V68.178a.719.719 0 0 1 .187-.519.763.763 0 0 1 1.021 0 .723.723 0 0 1 .187.519V78.35h5.494a.686.686 0 0 1 .476.154.657.657 0 0 1 0 .884.686.686 0 0 1-.476.153h-6.209a.687.687 0 0 1-.48-.178z" class="cls-1" data-name="Path 137"/>
            <path id="Path_138" d="M369.692 79.431a.719.719 0 0 1-.187-.519V68.178a.719.719 0 0 1 .187-.519.763.763 0 0 1 1.021 0 .723.723 0 0 1 .187.519v10.734a.723.723 0 0 1-.187.519.766.766 0 0 1-1.021 0z" class="cls-1" data-name="Path 138"/>
            <path id="Path_139" d="M380.094 79.431a.7.7 0 0 1-.2-.519V68.739h-3.658a.686.686 0 0 1-.476-.153.66.66 0 0 1 0-.884.686.686 0 0 1 .476-.153h8.727a.686.686 0 0 1 .476.153.657.657 0 0 1 0 .884.686.686 0 0 1-.476.153h-3.653v10.173a.719.719 0 0 1-.187.519.674.674 0 0 1-.51.195.7.7 0 0 1-.519-.195z" class="cls-1" data-name="Path 139"/>
            <path id="Path_140" d="M398.474 67.48a.588.588 0 0 1 .425.187.627.627 0 0 1 .188.46.612.612 0 0 1-.154.425l-4.133 5.223v5.137a.7.7 0 1 1-1.395 0v-5.154l-4.134-5.206a.627.627 0 0 1 .026-.885.634.634 0 0 1 .45-.187.612.612 0 0 1 .494.256l3.878 4.95 3.862-4.95a.61.61 0 0 1 .493-.256z" class="cls-1" data-name="Path 140"/>
        </g>
        <g id="Group_35" data-name="Group 35">
            <path id="Path_141" d="M213.582 84.564c-.066-.284-.21-.813-.416-1.532a321.37 321.37 0 0 0-1.228-4.191c-2.057-6.888-5.47-17.99-7.165-23.507-.556-1.795-.925-3-1.01-3.28-.8-2.656-2.189-7.425-3.394-8.7-2.014-2.119-4.754.9-6.542 3.949l-4.654 7.841-3.3 5.563-.505.847c-.183-.6-.366-1.2-.545-1.8l-.019-.058-.167-.556-.428-1.4c-.556-1.827-1.127-4.922-3.343-5.167a1.916 1.916 0 0 0-.49 0c-.046 0-.093 0-.136.012a3.546 3.546 0 0 0-.393.09c-.077.023-.151.054-.229.085s-.148.066-.221.1c-.055.023-.109.054-.164.082s-.1.066-.159.1c-.023.019-.051.035-.078.054s-.054.035-.078.051a3.968 3.968 0 0 0-.454.373c-.1.089-.2.187-.292.284-.043.046-.089.1-.14.147a13.134 13.134 0 0 0-1.776 2.667c-.459.871-.844 1.726-1.147 2.391-.035.074-4.261 8.385-7.122 14.158-.089.178-.179.357-.26.532-1.209 2.445-2.123 4.338-2.282 4.8-.98 2.8-.89 6.189 1.287 6.974 5.108 1.353 8.952-5.909 8.952-5.909l.373-.629 6.348-10.706 1.155-1.944c.109.358.214.715.326 1.073l.288.949v.015c.093.3.529 1.742 1.147 3.782.023.09.054.187.081.28.576 1.886 1.287 4.238 2.018 6.644l2.6 8.564c.486 1.6.874 2.888 1.092 3.607.1.338.167.552.187.614 1.6 5.291 2.985 12.008 8.758 14.236a10.113 10.113 0 0 0 8.7-1.112c3.461-1.986 7.843-7.452 4.825-20.373zm-31.546-17.385l-6.7 11.3-.353.595s-2.589 4.249-6.014 3.424c-1.419-.338-3.7-1.527-1.528-6.5 0 0 .366-.719.953-1.878l.3-.6c2.5-4.94 7.9-15.6 8.175-16.074a6.636 6.636 0 0 1 .556-.839c.039-.047.179-.2.21-.234a1.544 1.544 0 0 1 .5-.338.939.939 0 0 1 .171-.054.085.085 0 0 1 .031 0 .078.078 0 0 0 .028 0 .147.147 0 0 1 .058-.012 1.322 1.322 0 0 1 .295 0 1.4 1.4 0 0 1 .327.082 2.088 2.088 0 0 1 .307.14 2.989 2.989 0 0 1 .575.443 4.9 4.9 0 0 1 .8 1.018 6.951 6.951 0 0 1 .334.642c.055.113.1.218.148.334.043.1.086.2.125.3.05.129.1.261.143.393.039.1.07.2.1.3.086.261.164.521.241.785l.082.277c.2.688.377 1.376.571 2.017.008.019.012.043.02.07a.605.605 0 0 0 .019.07c.241.781.475 1.559.712 2.336zM207.32 102.1a6.92 6.92 0 0 1-7.705-1.057c-3.118-2.651-4.517-6.842-5.656-10.9-.2-.7-.389-1.392-.579-2.076-.152-.552-.3-1.1-.463-1.633-.039-.124-.074-.249-.113-.373l-2.6-8.579-1.866-6.154-.234-.77-1.64-5.407c-.058-.195-.121-.4-.179-.591l-.311-1.03a57.673 57.673 0 0 1-.26-.863l.61-1.026 3.619-6.1 4.657-7.856c1.516-2.321 2.651-2.3 3.538-1.462 1.1 1.066 1.45 2.733 1.885 4.164q.881 2.9 1.757 5.8c.035.108.066.221.1.33.727 2.391 4.762 15.651 7.137 23.487.5 1.664.933 3.083 1.241 4.1.233.765.4 1.306.47 1.555 2.947 9.933-1.119 15.325-3.408 16.441z" class="cls-2" data-name="Path 141"/>
            <path id="Path_142" d="M204.773 55.334l-3 .86q-.875-2.9-1.757-5.8c-.435-1.431-.789-3.1-1.885-4.164-.887-.839-2.022-.859-3.538 1.462l-4.657 7.856-.766-.4 4.654-7.841c1.788-3.048 4.528-6.068 6.542-3.949 1.205 1.271 2.593 6.04 3.394 8.7.088.275.457 1.481 1.013 3.276z" class="cls-3" data-name="Path 142"/>
            <path id="Path_143" d="M208.762 104.941a10.113 10.113 0 0 1-8.7 1.112c-5.773-2.228-7.153-8.945-8.758-14.236a5706.655 5706.655 0 0 1-1.279-4.221l2.888-1.155c.159.533.311 1.081.463 1.633.19.684.38 1.376.579 2.076 1.139 4.054 2.538 8.245 5.656 10.9a6.92 6.92 0 0 0 7.705 1.057c2.289-1.119 6.355-6.511 3.4-16.435-.074-.249-.237-.79-.47-1.555-.308-1.019-.739-2.438-1.241-4.1l2.924-1.17c.509 1.7.933 3.149 1.228 4.191.206.719.35 1.248.416 1.532 3.027 12.915-1.355 18.381-4.811 20.371z" class="cls-4" data-name="Path 143"/>
            <path id="Path_144" d="M188.334 71.335l-3.005.773c-.618-2.04-1.054-3.483-1.147-3.782v-.015l-.288-.949c-.112-.358-.217-.715-.326-1.073l-.338-1.112c-.237-.777-.471-1.555-.712-2.336a.605.605 0 0 1-.019-.07c-.008-.027-.012-.051-.02-.07-.194-.641-.373-1.329-.571-2.017l-.082-.277a23.701 23.701 0 0 0-.241-.785c-.035-.1-.066-.2-.1-.3a12.185 12.185 0 0 0-.143-.393c-.039-.1-.082-.2-.125-.3a4.712 4.712 0 0 0-.148-.334 6.951 6.951 0 0 0-.334-.642 4.9 4.9 0 0 0-.8-1.018 2.989 2.989 0 0 0-.575-.443 2.088 2.088 0 0 0-.307-.14 1.4 1.4 0 0 0-.327-.082 1.322 1.322 0 0 0-.295 0 .147.147 0 0 0-.058.012.078.078 0 0 1-.028 0 .085.085 0 0 0-.031 0 .939.939 0 0 0-.171.054 1.544 1.544 0 0 0-.5.338 6.952 6.952 0 0 0-.21.234 6.636 6.636 0 0 0-.556.839c-.276.478-5.676 11.134-8.175 16.074l-.7-.349c2.861-5.773 7.087-14.084 7.122-14.158.3-.665.688-1.52 1.147-2.391a13.134 13.134 0 0 1 1.776-2.667c.051-.05.1-.1.14-.147.1-.1.194-.195.292-.284a3.968 3.968 0 0 1 .454-.373c.024-.016.051-.031.078-.051s.055-.035.078-.054c.054-.031.109-.066.159-.1s.109-.059.164-.082c.073-.039.147-.074.221-.1s.152-.062.229-.085a3.546 3.546 0 0 1 .393-.09c.043-.008.09-.008.136-.012a1.916 1.916 0 0 1 .49 0c2.216.245 2.787 3.34 3.343 5.167l.428 1.4.167.556c0 .015.012.035.019.058.179.6.362 1.2.545 1.8l.338 1.116c.085.291.171.575.26.863l.311 1.03.179.591 1.64 5.407z" class="cls-5" data-name="Path 144"/>
            <path id="Path_145" d="M176.061 78.939l-.373.629s-3.844 7.262-8.952 5.909c-2.177-.785-2.267-4.175-1.287-6.974.159-.459 1.073-2.352 2.282-4.8l.661.416c-.587 1.159-.953 1.878-.953 1.878-2.173 4.972.109 6.161 1.528 6.5 3.425.825 6.014-3.424 6.014-3.424l.353-.595z" class="cls-6" data-name="Path 145"/>
        </g>
    </g>
</svg>
